<svg version="1.1" xmlns="http://www.w3.org/2000/svg" xmlns:xlink="http://www.w3.org/1999/xlink"
  viewBox="140 150 740 740" width="500" height="500">
<defs>
  <linearGradient id="goldGrad" x1="0%" y1="0%" x2="100%" y2="100%">
    <stop offset="0%" stop-color="#c9a84c"/>
    <stop offset="100%" stop-color="#e4c76b"/>
  </linearGradient>
</defs>

<!-- Transparent background — no rect -->

<!-- Head outline + brain (white) -->
<path fill="#ffffff" opacity="1" stroke="none" 
  d="
M534.361572,197.489258 
  C584.430054,202.968643 630.728455,218.403915 673.014221,244.930069 
  C723.974121,276.897614 761.189575,320.225830 779.596252,378.295624 
  C786.649780,400.548187 789.347290,423.531189 788.142761,446.815094 
  C787.499207,459.255737 785.749756,471.667236 782.350220,483.729492 
  C779.869446,492.531982 781.430542,500.175659 786.824280,507.733490 
  C801.535156,528.346375 815.520264,549.477722 830.261353,570.068298 
  C848.880676,596.075989 830.809631,624.898254 810.945007,634.194031 
  C807.788574,635.671204 804.443542,636.758362 801.152222,637.931824 
  C792.451172,641.033997 790.135071,644.918274 791.865784,653.910706 
  C793.949036,664.734741 794.481201,675.682312 790.039612,685.873413 
  C786.108032,694.894226 782.510925,703.828247 781.031799,713.619690 
  C780.459839,717.406433 778.019226,720.618591 775.424377,723.517578 
  C771.702454,727.675903 770.152100,732.390198 770.250000,738.125488 
  C770.459839,750.420837 770.930481,762.748047 768.392456,774.955444 
  C762.964478,801.061829 739.961060,821.039001 713.415833,823.495422 
  C697.325500,824.984375 681.503235,822.884949 665.577087,821.911621 
  C652.613708,821.119385 639.662659,820.100281 626.692749,819.448059 
  C618.273560,819.024719 611.395081,822.348328 606.571960,829.364197 
  C605.086304,831.525330 603.369263,832.435303 600.768127,832.407715 
  C592.937073,832.324585 585.101929,832.321228 577.272949,832.493591 
  C574.030029,832.565002 573.268494,831.283875 573.641724,828.259766 
  C576.285034,806.846680 594.359924,790.078430 616.218811,788.611084 
  C632.606689,787.511047 648.770081,790.151367 665.027222,791.185486 
  C678.826233,792.063232 692.608948,793.503601 706.448792,792.897949 
  C721.633545,792.233337 739.430908,780.413086 738.932617,759.696472 
  C738.712280,750.536194 738.882507,741.364380 738.987915,732.199036 
  C739.080872,724.122681 741.033203,716.750916 747.088196,710.850708 
  C752.740417,705.343140 755.702087,698.796631 754.691528,690.621460 
  C753.878357,684.043091 755.867676,678.078003 760.021118,672.906311 
  C763.205444,668.941467 763.670166,664.804932 762.328125,659.833374 
  C758.307434,644.938599 759.676880,631.089783 771.428955,619.628113 
  C775.324768,615.828613 779.835205,613.138672 784.799133,611.054443 
  C789.403687,609.121155 794.144592,607.407410 798.498718,605.004822 
  C807.397095,600.094910 808.986877,592.975647 803.200134,584.608948 
  C793.626648,570.767395 783.904846,557.028320 774.239868,543.250000 
  C768.691772,535.340637 762.967590,527.548889 757.616760,519.508423 
  C749.571838,507.419861 747.024780,494.568298 750.836853,480.074463 
  C766.390503,420.939270 751.457458,368.295319 713.445862,322.269928 
  C672.050049,272.146851 616.875244,244.903534 553.890198,232.241440 
  C530.559021,227.551102 506.954193,226.078033 483.263794,227.159531 
  C438.441071,229.205734 396.247498,240.766113 357.226074,263.306824 
  C337.509949,274.695862 319.263306,287.982269 302.880524,303.835724 
  C275.536255,330.296539 254.991547,361.379944 240.331924,396.347351 
  C228.300858,425.044891 219.783737,454.829773 217.624008,485.953156 
  C214.925613,524.838989 218.506409,562.881958 237.521561,598.018311 
  C253.057556,626.725952 274.786957,648.414185 307.260071,656.780029 
  C335.397583,664.028931 360.752991,658.527893 381.826447,637.595337 
  C397.314606,622.210754 412.546661,606.567566 428.093506,591.243103 
  C438.391083,581.092896 450.863739,576.144104 465.487823,576.001587 
  C478.639465,575.873413 491.776093,577.050659 504.945618,575.991028 
  C512.328735,575.396973 518.515320,572.722595 523.644531,567.609924 
  C557.398438,533.964722 591.039001,500.205322 624.908813,466.677521 
  C628.577209,463.046143 626.990295,459.970062 626.052490,456.306458 
  C620.070923,432.938873 630.127014,413.113708 651.425537,404.719940 
  C667.844727,398.249084 687.971619,403.069397 699.120483,415.777832 
  C711.511292,429.901886 713.500488,447.494751 704.578735,464.050446 
  C695.676880,480.568939 674.784729,489.886475 655.845764,485.407104 
  C651.940796,484.483521 649.446289,485.119415 646.636169,487.947113 
  C612.570251,522.225220 578.083984,556.092163 544.404846,590.744263 
  C533.309387,602.160278 520.868347,607.461792 505.336792,607.137878 
  C493.175659,606.884216 481.001770,607.256287 468.839752,607.024048 
  C460.639221,606.867493 453.957245,609.719910 448.241089,615.465515 
  C436.259460,627.508850 424.231415,639.506897 412.131287,651.431030 
  C402.523132,660.899414 392.838318,670.292236 383.059540,679.583923 
  C380.185150,682.315125 379.026184,685.279480 379.035309,689.276855 
  C379.138245,734.442749 379.088440,779.609131 379.071167,824.775330 
  C379.068207,832.483765 379.050293,832.447083 371.367279,832.370056 
  C365.034698,832.306580 358.699890,832.268494 352.368439,832.369324 
  C349.412231,832.416321 348.402283,831.465942 348.407043,828.287781 
  C348.443329,804.137878 348.173798,779.987610 348.165283,755.837463 
  C348.158142,735.534241 348.380676,715.230896 348.487000,694.927551 
  C348.519226,688.776001 348.247406,688.525208 342.405762,689.217285 
  C297.349060,694.554688 261.041473,677.710815 232.036118,644.295044 
  C203.751617,611.709717 189.865463,572.917419 186.632507,530.215393 
  C180.763977,452.701569 202.046555,382.661530 247.391693,320.220032 
  C282.489471,271.889435 328.683044,237.094116 384.680786,215.760864 
  C421.165771,201.861298 459.035919,195.132950 498.034302,195.188034 
  C510.000702,195.204941 522.013184,195.806229 534.361572,197.489258 
M656.117920,432.587494 
  C649.439392,439.494476 648.953491,448.924805 654.948059,455.291992 
  C660.496216,461.184998 671.020325,461.682617 677.150513,456.341949 
  C683.488403,450.820282 684.682495,440.890381 679.744202,434.773346 
  C673.965759,427.615601 664.389282,426.503601 656.117920,432.587494 
z"/>

<!-- Brain interior (gold gradient) -->
<path fill="url(#goldGrad)" opacity="1" stroke="none" 
  d="
M305.061646,342.074219 
  C331.463715,311.749237 362.790833,289.196350 400.030243,274.454529 
  C430.111023,262.546539 461.000275,256.594727 493.229706,257.810028 
  C504.677704,258.241699 516.135620,259.360687 527.170349,262.990356 
  C550.035095,270.511353 564.536987,286.173981 571.169373,308.995880 
  C580.035950,339.505432 570.409790,365.794952 551.196228,389.317474 
  C535.241699,408.850189 513.357849,416.653412 489.038727,419.428436 
  C437.445892,425.315552 389.671722,441.273315 348.411530,473.868591 
  C338.594421,481.624084 329.731201,490.455322 321.276367,499.669098 
  C319.839874,501.234528 318.720520,503.193756 317.838531,505.144592 
  C315.758453,509.745514 316.950531,514.986938 320.597443,517.848755 
  C324.694397,521.063721 328.628082,520.004883 332.519897,517.300171 
  C338.307343,513.278076 343.056427,508.115356 348.099701,503.276764 
  C379.686096,472.972565 417.170135,455.352509 460.897614,452.320251 
  C485.753540,450.596619 505.568817,468.819183 501.872772,494.520844 
  C499.876678,508.401672 490.964691,518.155396 478.705139,524.743164 
  C474.282074,527.119873 469.549438,528.781311 464.696289,529.992554 
  C445.300964,534.833191 429.158630,545.171936 414.261383,558.255798 
  C399.400421,571.307739 387.134247,586.650146 374.014191,601.247742 
  C364.386414,611.959717 353.669067,621.250000 339.560150,625.073547 
  C315.034515,631.719971 294.166870,624.666321 277.116882,606.247681 
  C259.856903,587.602173 251.172501,564.555420 247.341736,540.176514 
  C237.173416,475.465332 252.236069,416.198242 289.011108,362.304016 
  C293.784119,355.309113 299.535614,348.981873 305.061646,342.074219 
M337.180298,379.688171 
  C331.772003,383.837067 325.923218,387.517517 322.226837,393.508514 
  C319.649780,397.685303 320.307922,404.493103 323.559845,407.902588 
  C326.426575,410.908264 331.193634,411.249695 336.072754,408.617065 
  C338.117401,407.513855 340.082642,406.212769 341.926331,404.796417 
  C351.044769,397.791443 360.317902,391.058319 370.257446,385.200409 
  C394.129547,371.131348 419.643890,361.324341 446.464783,354.622925 
  C455.222839,352.434692 464.261566,351.971527 472.983704,349.753540 
  C479.656128,348.056763 483.298309,343.540436 482.900970,337.831207 
  C482.468048,331.610504 476.256195,327.710144 467.709686,328.425323 
  C457.764801,329.257507 447.934906,330.838318 438.204681,333.080475 
  C401.526703,341.532379 367.770020,356.320496 337.180298,379.688171 
z"/>

<!-- Circuit nodes + connections (gold gradient) -->
<path fill="url(#goldGrad)" opacity="1" stroke="none" 
  d="
M646.759644,597.127197 
  C643.962219,597.116943 641.620972,597.230957 639.297546,597.075928 
  C632.492188,596.621765 627.197571,599.177673 622.440125,604.084839 
  C602.031189,625.135925 581.436890,646.007751 560.826294,666.862000 
  C558.673157,669.040588 558.201355,670.740967 560.247864,673.213501 
  C563.007263,676.547241 565.603088,680.028259 568.091919,683.570435 
  C570.289978,686.698608 572.626709,687.071350 576.174194,685.517883 
  C589.292908,679.773254 602.170532,680.726440 614.484619,687.993286 
  C630.866028,697.660278 639.021606,718.153503 633.915466,736.461853 
  C628.666565,755.282471 611.965088,767.597717 592.095825,767.298645 
  C572.511475,767.003845 555.972717,754.208740 551.300110,735.771362 
  C549.674561,729.357544 549.468872,722.922302 551.230713,716.538940 
  C552.112366,713.344421 551.558533,710.809998 549.461426,708.225830 
  C543.268677,700.594788 537.174988,692.879272 531.223694,685.058838 
  C529.222778,682.429565 527.000000,681.207153 523.653381,681.231140 
  C509.656097,681.331421 495.657410,681.240540 481.659271,681.204041 
  C476.218140,681.189880 471.602783,683.078674 467.728516,686.926086 
  C458.625854,695.965637 449.513062,704.995789 440.318665,713.941650 
  C438.243927,715.960388 438.282349,718.361084 438.281799,720.861023 
  C438.276215,745.858887 438.201355,770.857239 438.345337,795.854248 
  C438.368256,799.836548 437.194153,802.747803 434.395477,805.572449 
  C425.659973,814.389282 416.279114,822.570801 408.584808,832.330200 
  C406.242981,830.789429 406.818817,828.784607 406.817657,827.053528 
  C406.791199,787.556885 406.832672,748.060120 406.772491,708.563599 
  C406.767273,705.135681 407.888763,702.449097 410.257385,700.088745 
  C423.711761,686.681458 436.995331,673.098633 450.638031,659.886292 
  C457.557526,653.185120 466.010010,649.607544 475.934021,649.711609 
  C490.930786,649.868896 505.931458,649.630676 520.929199,649.735596 
  C530.233337,649.800659 537.883362,646.933472 544.552673,640.000305 
  C563.955200,619.830322 583.908875,600.191650 603.410645,580.115540 
  C613.804321,569.415649 626.511353,566.291992 640.759644,567.193665 
  C642.584473,567.309143 644.413086,567.417969 646.227661,567.632996 
  C650.054016,568.086365 652.263000,566.479980 654.012939,562.966614 
  C666.739929,537.415222 697.992126,530.497009 719.932068,548.628357 
  C733.690674,559.998596 738.200256,575.082153 733.822571,592.214172 
  C729.489807,609.170410 718.050842,619.267639 700.813293,622.363098 
  C680.917480,625.935913 666.164795,619.243774 655.598511,601.722656 
  C653.468079,598.189880 651.122986,596.652649 646.759644,597.127197 
M680.876099,570.395996 
  C676.526306,575.530518 675.188354,581.087219 678.182434,587.437744 
  C681.947632,595.423828 691.550110,598.731384 699.747925,594.733215 
  C707.565918,590.920227 710.739258,581.250610 706.696716,573.559204 
  C701.614075,563.888794 690.865845,562.337097 680.876099,570.395996 
M603.632935,712.822632 
  C601.919128,711.811035 600.301575,710.556152 598.473816,709.832336 
  C592.318359,707.394775 586.631836,708.547791 581.779846,712.921143 
  C577.225037,717.026672 575.780273,725.178040 578.518555,731.526733 
  C580.923279,737.102417 585.522156,739.704224 591.539185,740.033813 
  C598.597534,740.420349 603.921326,737.544678 607.114929,731.342651 
  C610.505127,724.758911 608.637939,718.764404 603.632935,712.822632 
z"/>

</svg>
